<?xml version="1.0" encoding="utf-8"?>
<!-- Generator: Adobe Illustrator 16.0.0, SVG Export Plug-In . SVG Version: 6.00 Build 0)  -->
<!DOCTYPE svg PUBLIC "-//W3C//DTD SVG 1.1//EN" "http://www.w3.org/Graphics/SVG/1.1/DTD/svg11.dtd">
<svg version="1.1" id="Layer_1" xmlns="http://www.w3.org/2000/svg" xmlns:xlink="http://www.w3.org/1999/xlink" x="0px" y="0px"
	 width="32.579px" height="31.773px" viewBox="0 0 32.579 31.773" enable-background="new 0 0 32.579 31.773" xml:space="preserve">
<path fill="#ff9999"  d="M16.289,0C7.294,0,0,7.293,0,16.291c0,7.196,4.667,13.302,11.141,15.457c0.814,0.147,1.112-0.354,1.112-0.785
	c0-0.387-0.014-1.412-0.022-2.771c-4.531,0.984-5.487-2.184-5.487-2.184c-0.741-1.881-1.809-2.383-1.809-2.383
	c-1.479-1.01,0.112-0.99,0.112-0.99c1.635,0.115,2.495,1.68,2.495,1.68c1.453,2.488,3.812,1.771,4.741,1.354
	c0.148-1.053,0.569-1.771,1.034-2.178c-3.617-0.412-7.42-1.81-7.42-8.052c0-1.777,0.635-3.231,1.677-4.371
	c-0.167-0.411-0.727-2.067,0.16-4.311c0,0,1.368-0.438,4.479,1.67c1.299-0.361,2.693-0.542,4.078-0.548
	c1.383,0.006,2.776,0.187,4.079,0.548c3.109-2.108,4.476-1.67,4.476-1.67c0.889,2.243,0.329,3.899,0.161,4.311
	c1.043,1.14,1.675,2.594,1.675,4.371c0,6.259-3.81,7.636-7.438,8.038c0.586,0.504,1.105,1.498,1.105,3.019
	c0,2.178-0.02,3.934-0.02,4.469c0,0.436,0.293,0.941,1.119,0.783c6.469-2.158,11.131-8.261,11.131-15.455
	C32.579,7.293,25.286,0,16.289,0z"/>
</svg>
