<?xml version="1.0" standalone="no"?>
<!DOCTYPE svg PUBLIC "-//W3C//DTD SVG 20010904//EN"
 "http://www.w3.org/TR/2001/REC-SVG-20010904/DTD/svg10.dtd">
<svg version="1.0" xmlns="http://www.w3.org/2000/svg"
 width="16.000000pt" height="16.000000pt" viewBox="0 0 16.000000 16.000000"
 preserveAspectRatio="xMidYMid meet">
<metadata>
Created by potrace 1.11, written by Peter Selinger 2001-2013
</metadata>
<g transform="translate(0.000000,16.000000) scale(0.011594,-0.011594)"
fill="#000000" stroke="none">
<path d="M1321 1363 c8 -10 24 -29 36 -42 l23 -24 0 42 c0 41 0 41 -36 41 -33
0 -35 -2 -23 -17z"/>
<path d="M351 968 c-40 -11 -105 -54 -140 -91 -25 -27 -23 -57 4 -57 11 0 15
-11 15 -45 0 -33 -4 -45 -15 -45 -21 0 -19 -13 7 -38 29 -26 57 -37 141 -51
93 -16 131 -4 196 61 50 50 60 76 27 70 -9 -2 -16 4 -16 13 0 9 -6 18 -13 21
-8 3 -12 16 -9 32 3 23 -1 29 -27 39 -17 6 -31 7 -31 2 0 -17 -18 -9 -23 11
-4 18 -2 20 16 14 12 -3 26 -10 31 -15 16 -14 66 -11 66 5 0 18 -67 62 -115
75 -47 13 -68 13 -114 -1z m-27 -75 c-12 -11 -18 -27 -16 -42 2 -13 -2 -28 -8
-35 -10 -8 -11 -4 -6 23 5 31 5 32 -12 20 -9 -8 -22 -21 -29 -29 -8 -9 -12
-11 -13 -3 0 13 78 83 93 83 6 0 1 -8 -9 -17z m121 -3 c10 -11 16 -23 13 -26
-7 -6 -48 27 -48 38 0 14 17 8 35 -12z m75 -80 c0 -5 -2 -10 -4 -10 -3 0 -8 5
-11 10 -3 6 -1 10 4 10 6 0 11 -4 11 -10z m-233 -96 c-7 -7 -37 7 -37 17 0 6
9 5 21 -1 11 -7 19 -14 16 -16z m218 6 c-3 -5 -11 -10 -16 -10 -6 0 -7 5 -4
10 3 6 11 10 16 10 6 0 7 -4 4 -10z m-160 -30 c3 -6 -1 -7 -9 -4 -18 7 -21 14
-7 14 6 0 13 -4 16 -10z"/>
<path d="M882 959 c-67 -34 -107 -109 -57 -109 10 0 15 -9 15 -27 -1 -16 2
-40 6 -55 4 -18 2 -28 -5 -28 -27 0 -7 -28 34 -48 89 -43 227 -15 282 56 17
23 23 37 15 40 -7 2 -12 18 -12 36 0 18 -7 41 -15 52 -19 25 -19 31 5 37 12 3
18 11 15 19 -19 50 -202 67 -283 27z m160 -69 c11 -12 13 -22 7 -26 -6 -3 -17
2 -24 12 -27 36 -12 48 17 14z"/>
<path d="M788 593 c-25 -6 -22 -20 12 -60 40 -45 44 -99 9 -136 -35 -37 -18
-50 27 -21 21 14 31 15 63 5 47 -13 51 -14 51 -1 0 5 -18 20 -40 32 -48 28
-52 55 -14 110 34 48 27 68 -25 68 -22 0 -45 2 -53 4 -7 2 -21 2 -30 -1z"/>
</g>
</svg>
