<?xml version="1.0" standalone="no"?>
<!DOCTYPE svg PUBLIC "-//W3C//DTD SVG 20010904//EN"
 "http://www.w3.org/TR/2001/REC-SVG-20010904/DTD/svg10.dtd">
<svg version="1.0" xmlns="http://www.w3.org/2000/svg"
 width="479.000000pt" height="479.000000pt" viewBox="0 0 479.000000 479.000000"
 preserveAspectRatio="xMidYMid meet">
<metadata>
Created by potrace 1.11, written by Peter Selinger 2001-2013
</metadata>
<g transform="translate(0.000000,479.000000) scale(0.100000,-0.100000)"
fill="#000000" stroke="none">
<path d="M0 4136 c0 -426 3 -657 10 -661 6 -3 10 -12 10 -18 0 -7 -4 -6 -10 3
-7 10 -10 -33 -10 -131 0 -118 3 -149 15 -159 18 -15 20 -34 3 -24 -7 4 -9 3
-5 -1 13 -15 34 -14 33 2 0 8 10 22 24 31 23 16 24 16 17 -2 -5 -13 -3 -17 7
-13 7 3 19 0 26 -6 10 -10 10 -8 2 8 -16 31 -49 58 -57 46 -10 -17 -35 -13
-29 4 4 8 -1 17 -10 21 -9 3 -13 10 -10 15 3 5 14 -1 25 -13 12 -14 22 -19 25
-12 3 6 15 9 29 7 18 -4 27 1 39 26 18 35 37 39 61 14 25 -24 49 -5 53 42 2
22 12 51 23 66 12 18 16 30 9 34 -6 4 -8 21 -4 40 4 25 1 43 -13 67 -16 27
-19 48 -17 113 2 43 -1 84 -6 90 -9 10 -23 69 -22 90 0 6 2 26 3 45 2 42 -16
103 -36 120 -11 10 -14 30 -10 90 4 63 2 89 -15 132 -26 68 -26 72 10 124 21
32 28 52 25 76 -10 81 -18 110 -31 115 -8 3 -14 17 -14 32 0 15 -5 32 -11 38
-8 8 -3 19 18 40 31 34 187 89 222 80 12 -3 19 -1 15 4 -3 5 21 9 55 9 33 0
63 5 66 10 5 7 11 8 19 1 6 -5 17 -6 24 -2 7 4 47 1 90 -6 42 -8 88 -15 102
-17 34 -5 65 -18 191 -80 60 -29 106 -56 102 -60 -6 -6 11 -10 33 -7 5 0 19
-7 30 -18 11 -10 37 -24 57 -30 39 -13 99 -51 132 -82 11 -11 36 -30 55 -43
19 -13 34 -28 33 -34 -2 -7 0 -12 5 -13 22 -2 49 -7 62 -10 17 -4 70 -58 70
-71 0 -4 7 -8 15 -8 8 0 15 -8 15 -17 0 -15 2 -16 10 -3 8 13 10 13 10 -1 0
-10 7 -16 18 -15 9 0 16 -5 15 -11 -2 -7 4 -13 13 -13 8 0 12 -5 8 -11 -4 -7
0 -10 11 -7 20 3 32 48 14 48 -8 0 -7 5 1 15 11 13 10 15 -6 9 -16 -5 -16 -4
-4 5 12 9 20 5 37 -17 13 -15 23 -22 23 -17 0 6 13 19 28 29 15 11 22 13 15 6
-6 -7 -9 -20 -6 -29 3 -9 7 -22 9 -29 3 -10 8 -10 25 -1 19 10 21 9 16 -5 -6
-16 2 -20 33 -17 9 1 11 -1 5 -6 -18 -15 -36 -54 -29 -65 4 -6 3 -8 -3 -5 -6
4 -13 0 -16 -7 -8 -21 -49 -42 -46 -24 3 24 -1 39 -8 35 -5 -3 -14 1 -20 9 -8
8 -9 15 -3 19 6 3 10 1 10 -5 0 -6 5 -8 10 -5 6 4 0 15 -15 27 -20 15 -29 18
-38 9 -16 -16 -42 -14 -57 4 -9 11 -16 13 -24 5 -7 -7 -6 -14 2 -22 7 -7 12
-25 12 -40 0 -25 28 -63 48 -63 4 0 18 -8 32 -17 14 -10 42 -19 63 -22 21 -3
44 -9 51 -15 8 -7 32 -8 58 -5 29 4 48 2 52 -5 11 -17 23 -13 29 10 3 12 10
18 17 14 6 -3 9 -1 8 5 -4 19 54 50 70 37 9 -7 16 -5 25 7 7 10 20 17 28 16
46 -7 76 1 88 24 9 16 19 22 32 19 10 -3 19 0 19 6 0 6 3 10 8 9 4 -1 18 2 32
5 14 4 42 9 64 12 21 3 42 8 47 11 5 3 9 0 9 -6 0 -18 129 -5 192 20 50 20 60
21 87 9 16 -7 28 -16 26 -19 -2 -3 19 -6 46 -8 27 -1 49 1 49 6 0 10 58 1 108
-18 24 -9 44 -9 80 -1 54 12 93 20 142 26 19 3 43 8 52 11 43 13 66 13 71 0 5
-13 41 -23 114 -32 21 -3 37 2 49 13 10 10 18 16 18 14 1 -2 10 -1 21 3 25 8
71 102 67 135 -2 18 7 34 34 59 24 22 33 36 26 41 -13 8 22 93 41 100 5 2 31
24 56 49 25 24 56 51 69 60 12 8 20 17 17 20 -2 3 -1 10 4 16 5 6 14 27 20 46
8 26 26 44 64 67 l52 32 -1942 1 -1943 0 0 -654z m1735 345 c3 -5 1 -12 -4
-15 -12 -8 -41 3 -41 15 0 12 37 12 45 0z m-326 -23 c6 -17 4 -25 -8 -30 -34
-14 -49 -8 -53 22 -4 27 -2 30 24 30 21 0 31 -6 37 -22z m191 -148 c0 -5 -5
-10 -11 -10 -5 0 -7 5 -4 10 3 6 8 10 11 10 2 0 4 -4 4 -10z m-1497 -984 c7
-17 -23 -42 -45 -38 -10 2 -18 12 -18 23 0 11 4 18 9 14 5 -3 12 -1 16 5 9 14
32 12 38 -4z"/>
<path d="M4490 4774 c0 -8 5 -12 10 -9 6 3 10 -1 10 -9 0 -9 4 -16 8 -16 5 0
9 -7 9 -15 0 -8 -4 -15 -9 -15 -4 0 -8 7 -8 15 0 8 -5 15 -10 15 -7 0 -7 -6 0
-20 6 -11 7 -20 3 -20 -4 0 3 -7 15 -16 26 -18 30 -36 5 -27 -13 5 -15 2 -11
-15 4 -16 1 -22 -15 -24 -25 -4 -32 -51 -11 -69 20 -16 31 -2 16 21 -26 41 0
57 33 20 16 -18 17 -22 3 -37 -24 -28 -28 -51 -12 -63 8 -7 14 -9 14 -4 0 5 5
2 10 -6 7 -11 12 -12 20 -4 6 6 22 9 36 6 17 -3 22 -7 14 -12 -8 -5 4 -15 34
-28 30 -14 46 -27 46 -39 4 -157 9 -179 59 -258 l31 -49 0 347 0 347 -58 0
c-46 0 -60 -4 -70 -20 -7 -11 -17 -20 -22 -20 -6 0 -18 9 -27 20 -23 26 -123
30 -123 4z m90 -254 c0 -5 -5 -10 -11 -10 -5 0 -7 5 -4 10 3 6 8 10 11 10 2 0
4 -4 4 -10z"/>
<path d="M4086 4741 c-4 -6 -4 -16 0 -23 14 -21 13 -62 0 -78 -20 -23 -39 -78
-31 -89 8 -14 -1 -14 -24 -1 -25 13 -74 -30 -64 -56 4 -12 3 -15 -5 -10 -7 4
-12 2 -12 -6 0 -10 -3 -9 -10 2 -8 12 -10 12 -16 -4 -4 -11 -2 -21 6 -26 7 -4
9 -14 6 -21 -4 -8 0 -5 9 6 11 13 16 14 13 5 -2 -8 -14 -19 -26 -25 -23 -10
-35 -31 -26 -46 6 -11 64 -8 64 2 0 4 9 11 20 14 11 4 20 15 20 26 0 11 7 33
15 49 9 17 14 30 11 30 -2 0 8 13 22 30 29 33 32 31 52 -20 8 -19 22 -41 32
-48 10 -8 17 -19 16 -25 -5 -20 24 -77 38 -77 8 0 14 7 14 15 0 9 -6 12 -17 8
-13 -5 -15 -2 -11 15 4 12 3 22 -2 22 -4 0 -10 9 -13 20 -3 11 -1 20 4 20 13
0 11 17 -5 33 -18 18 -22 74 -7 110 21 52 -1 127 -39 135 -8 2 -18 8 -21 14
-4 7 -9 6 -13 -1z"/>
<path d="M4287 4633 c-4 -3 -7 -18 -7 -33 0 -14 -4 -30 -9 -35 -6 -6 4 -11 29
-13 21 -1 41 2 45 8 4 6 11 8 16 5 18 -12 8 14 -17 44 -25 30 -44 38 -57 24z"/>
<path d="M4440 4515 c0 -8 2 -15 4 -15 2 0 6 7 10 15 3 8 1 15 -4 15 -6 0 -10
-7 -10 -15z"/>
<path d="M391 4396 c-6 -7 -8 -16 -5 -19 4 -4 -3 -4 -15 -2 -23 4 -49 -18
-113 -94 -33 -39 -33 -36 -9 -60 12 -12 27 -17 40 -14 12 3 21 1 21 -5 0 -5
-12 -9 -26 -9 -53 0 -65 -40 -24 -83 23 -25 32 -29 52 -21 16 6 23 16 23 35 1
14 -3 26 -7 26 -4 0 -8 7 -8 15 0 8 8 15 18 15 10 0 19 6 20 13 3 35 11 52 24
50 9 -2 15 8 16 30 2 17 7 34 12 35 6 2 7 9 3 15 -5 8 -2 8 9 0 19 -17 32 -4
15 15 -8 11 -8 14 0 9 8 -5 9 0 0 23 -13 34 -31 44 -46 26z"/>
<path d="M4229 4388 c-7 -32 -6 -36 11 -30 23 9 26 26 6 30 -9 2 -16 2 -17 0z"/>
<path d="M3865 4340 c-3 -6 1 -7 9 -4 18 7 21 14 7 14 -6 0 -13 -4 -16 -10z"/>
<path d="M4231 4295 c20 -30 38 -45 52 -45 18 0 19 -2 7 -10 -12 -8 -12 -10 3
-16 9 -3 17 -14 17 -23 0 -9 3 -12 8 -6 8 13 22 13 40 1 10 -6 13 -3 10 10 -2
13 -10 18 -26 16 -20 -3 -27 7 -23 31 1 5 -10 18 -25 29 -20 16 -23 23 -12 30
10 8 9 9 -4 5 -9 -3 -24 1 -35 8 -36 28 -42 14 -12 -30z"/>
<path d="M3881 4307 c-1 -31 12 -28 31 6 10 19 9 20 -4 9 -13 -10 -17 -10 -21
0 -3 7 -6 0 -6 -15z"/>
<path d="M3743 4287 c-18 -13 -33 -33 -35 -46 -3 -27 -28 -42 -28 -18 0 23
-22 26 -50 8 -36 -23 -49 -43 -48 -71 0 -14 -4 -37 -10 -52 -9 -22 -9 -26 3
-21 8 3 15 0 15 -6 0 -6 -4 -11 -9 -11 -5 0 -8 -6 -7 -12 7 -32 20 -48 38 -48
10 0 16 5 13 10 -3 6 1 10 9 10 9 0 16 5 16 10 0 6 9 21 20 33 11 11 23 37 26
57 4 24 13 39 30 47 22 10 25 9 30 -13 3 -13 12 -24 20 -24 14 0 41 50 49 89
4 19 2 21 -11 10 -8 -7 -13 -18 -10 -24 3 -9 -2 -11 -16 -7 -19 5 -19 6 -4 17
17 13 13 45 -6 45 -5 0 -6 9 -3 20 8 24 8 24 -32 -3z"/>
<path d="M536 4293 c-12 -12 -6 -33 9 -33 8 0 15 6 15 14 0 17 -14 28 -24 19z"/>
<path d="M602 4214 c-20 -14 -20 -16 -4 -47 9 -17 21 -35 26 -38 4 -4 2 -9 -5
-12 -8 -3 -5 -6 8 -6 17 -1 25 -10 34 -43 11 -41 46 -96 62 -97 4 -1 3 8 -3
19 -6 10 -8 37 -4 58 5 31 1 47 -17 76 -13 20 -32 39 -42 42 -14 4 -17 12 -13
29 7 29 -14 39 -42 19z"/>
<path d="M4435 4210 c-9 -14 19 -66 33 -62 7 1 16 -9 21 -22 12 -29 40 -41 48
-21 3 10 -5 25 -22 39 -15 13 -25 28 -21 34 3 6 -4 18 -16 26 -26 19 -35 20
-43 6z"/>
<path d="M357 4048 c2 -5 -5 -8 -16 -8 -16 0 -21 -6 -21 -29 0 -16 -5 -31 -10
-33 -6 -2 3 -24 20 -50 17 -26 29 -52 25 -58 -6 -9 8 -14 28 -11 5 1 6 -3 2
-9 -3 -5 -1 -10 5 -10 6 0 10 -6 9 -12 -3 -28 2 -40 15 -35 8 3 22 -4 33 -15
10 -12 13 -18 6 -15 -6 4 -14 3 -18 -3 -3 -5 1 -10 9 -10 9 0 13 -6 10 -14 -6
-16 17 -27 46 -21 12 2 20 -1 20 -10 0 -10 9 -14 24 -13 17 2 22 6 16 13 -5 6
-8 22 -5 34 4 20 2 21 -12 9 -15 -12 -15 -11 -5 8 10 19 9 23 -9 27 -12 3 -18
10 -15 15 3 6 0 13 -6 16 -7 3 7 2 31 -1 l45 -6 -22 34 c-12 19 -29 33 -37 33
-8 -1 -15 2 -15 8 0 5 -5 6 -12 2 -8 -5 -9 -2 -5 10 4 9 3 15 -3 11 -10 -6
-51 35 -45 45 4 7 -19 22 -37 24 -5 1 -7 5 -5 10 1 5 -9 13 -23 18 -24 9 -24
10 -5 21 28 17 29 35 1 33 -13 0 -22 -4 -19 -8z m143 -188 c0 -5 -5 -10 -11
-10 -5 0 -7 5 -4 10 3 6 8 10 11 10 2 0 4 -4 4 -10z"/>
<path d="M2660 4030 c0 -5 5 -10 10 -10 6 0 10 5 10 10 0 6 -4 10 -10 10 -5 0
-10 -4 -10 -10z"/>
<path d="M2800 4009 c0 -5 5 -7 10 -4 6 3 10 8 10 11 0 2 -4 4 -10 4 -5 0 -10
-5 -10 -11z"/>
<path d="M784 3989 c-2 -4 4 -15 13 -24 24 -24 28 -116 6 -132 -14 -11 -14
-13 8 -22 13 -5 27 -7 32 -4 4 2 7 -10 7 -28 0 -27 2 -30 15 -19 12 10 16 9
21 -4 8 -20 20 -21 28 0 3 8 2 12 -3 9 -5 -3 -12 4 -16 15 -3 11 -11 20 -16
20 -6 0 -7 5 -4 10 4 6 1 9 -7 8 -7 -2 -11 4 -9 12 12 49 -10 166 -30 154 -5
-3 -9 -1 -9 4 0 11 -29 12 -36 1z"/>
<path d="M2700 3971 c0 -17 21 -24 33 -11 9 10 9 11 0 6 -7 -4 -13 -2 -13 3 0
6 -4 11 -10 11 -5 0 -10 -4 -10 -9z"/>
<path d="M3560 3956 c0 -8 4 -17 9 -20 5 -4 7 3 4 14 -6 23 -13 26 -13 6z"/>
<path d="M3146 3948 c4 -7 16 -19 25 -26 10 -7 16 -21 14 -32 -5 -28 13 -35
36 -14 22 20 26 49 5 41 -10 -4 -16 2 -18 16 -2 17 -11 23 -37 25 -25 3 -31 0
-25 -10z"/>
<path d="M3120 3890 c-9 -6 -10 -10 -3 -10 6 0 15 5 18 10 8 12 4 12 -15 0z"/>
<path d="M2119 3873 c-13 -16 -12 -17 4 -4 9 7 17 15 17 17 0 8 -8 3 -21 -13z"/>
<path d="M3320 3851 c0 -5 5 -13 10 -16 6 -3 10 -2 10 4 0 5 -4 13 -10 16 -5
3 -10 2 -10 -4z"/>
<path d="M4670 3827 c0 -8 7 -14 15 -14 8 0 15 6 15 14 0 7 -7 13 -15 13 -8 0
-15 -6 -15 -13z"/>
<path d="M4703 3810 c-7 -10 -7 -19 1 -27 28 -31 31 -39 28 -70 -3 -26 -1 -33
12 -33 10 0 14 -5 10 -11 -4 -7 -1 -10 7 -7 22 7 19 87 -3 94 -19 6 -24 20 -8
26 5 2 -1 12 -14 24 -21 18 -25 19 -33 4z"/>
<path d="M495 3699 c3 -9 -1 -22 -10 -29 -22 -19 -18 -30 11 -28 21 2 24 6 19
28 -4 14 -11 30 -16 35 -7 7 -8 5 -4 -6z"/>
<path d="M943 3671 c-9 -15 -9 -23 2 -37 8 -11 15 -14 15 -7 0 6 -5 15 -10 18
-8 5 -7 11 1 21 6 8 10 16 8 19 -3 2 -10 -4 -16 -14z"/>
<path d="M1600 3675 c-8 -9 -8 -15 -2 -15 12 0 26 19 19 26 -2 2 -10 -2 -17
-11z"/>
<path d="M980 3611 c0 -6 4 -13 10 -16 6 -3 7 1 4 9 -7 18 -14 21 -14 7z"/>
<path d="M576 3475 c4 -8 10 -12 15 -9 14 8 10 24 -6 24 -9 0 -12 -6 -9 -15z"/>
<path d="M1310 3460 c-9 -17 -8 -20 8 -20 28 0 48 26 26 34 -22 8 -22 8 -34
-14z"/>
<path d="M4035 3361 c-5 -9 31 -41 48 -41 11 0 5 33 -8 42 -14 11 -33 10 -40
-1z"/>
<path d="M991 3261 c-8 -5 -9 -11 -3 -15 5 -3 12 1 16 9 6 17 6 18 -13 6z"/>
<path d="M4566 3245 c-3 -8 -1 -15 4 -15 6 0 10 7 10 15 0 8 -2 15 -4 15 -2 0
-6 -7 -10 -15z"/>
<path d="M4607 3244 c-3 -3 -3 -12 0 -20 4 -10 9 -11 24 -1 10 6 19 15 19 19
0 9 -34 11 -43 2z"/>
<path d="M2208 3198 c3 -12 7 -17 10 -10 2 7 8 10 13 6 5 -3 14 -2 20 2 14 8
-8 24 -33 24 -12 0 -15 -6 -10 -22z"/>
<path d="M45 3120 c-16 -7 -17 -9 -3 -9 9 -1 20 4 23 9 7 11 7 11 -20 0z"/>
<path d="M591 3114 c0 -11 3 -14 6 -6 3 7 2 16 -1 19 -3 4 -6 -2 -5 -13z"/>
<path d="M17 3078 c-3 -10 -1 -16 4 -12 5 3 9 0 9 -5 0 -6 3 -11 8 -11 4 0 7
11 7 23 0 28 -21 32 -28 5z"/>
<path d="M190 3034 c0 -8 5 -12 10 -9 6 4 8 11 5 16 -9 14 -15 11 -15 -7z"/>
<path d="M156 2995 c-3 -8 -12 -15 -20 -15 -11 0 -12 -5 -3 -25 7 -14 15 -25
18 -25 3 0 4 -10 2 -23 -4 -18 0 -23 19 -24 21 -2 21 -1 6 11 -10 7 -15 16
-12 19 8 8 11 97 3 97 -4 0 -9 -7 -13 -15z"/>
<path d="M323 2952 c-16 -16 -43 -34 -60 -40 -44 -15 -75 -45 -67 -65 7 -20 9
-20 52 -8 17 5 32 6 32 2 0 -4 10 -7 23 -6 25 2 34 29 16 51 -6 8 -10 15 -8
17 2 1 18 10 34 19 30 17 40 48 18 55 -7 3 -25 -9 -40 -25z"/>
<path d="M1710 2817 c0 -9 4 -18 9 -21 5 -4 8 1 7 9 -3 21 -16 31 -16 12z"/>
<path d="M2598 2678 c-7 -4 -30 -10 -50 -13 -21 -3 -50 -16 -65 -29 -15 -13
-43 -31 -60 -40 -32 -16 -95 -103 -117 -158 -6 -16 -14 -28 -18 -28 -4 0 -10
-21 -13 -47 -10 -81 -26 -137 -43 -157 -9 -11 -11 -16 -4 -12 14 8 16 -5 3
-20 -5 -5 -11 -20 -13 -34 -2 -18 2 -25 17 -28 11 -2 25 -9 30 -17 6 -7 24
-13 40 -13 167 -5 214 -9 228 -20 19 -16 159 -22 214 -10 50 12 101 60 134
126 13 26 29 54 34 62 6 8 19 42 29 75 10 33 20 67 23 75 3 8 7 34 9 57 5 41
2 46 -48 99 -83 88 -270 163 -330 132z m-235 -445 c18 -65 17 -71 -7 -75 -33
-7 -53 6 -39 24 6 7 13 25 17 41 7 31 22 36 29 10z"/>
<path d="M0 1931 c0 -396 4 -682 9 -685 5 -3 7 -15 4 -26 -3 -12 1 -22 11 -26
9 -3 13 -10 11 -15 -3 -4 3 -14 15 -21 11 -7 20 -22 20 -33 0 -11 6 -30 14
-41 11 -16 12 -23 2 -37 -7 -9 -16 -14 -20 -10 -4 4 -12 8 -19 9 -7 1 -20 5
-29 9 -17 7 -18 -22 -18 -524 l0 -531 520 0 520 0 0 53 c0 29 5 58 11 64 18
18 -19 111 -54 136 -16 12 -33 21 -37 20 -15 -4 -93 85 -104 118 -9 26 -17 33
-33 32 -16 -2 -21 2 -17 12 4 8 10 13 15 10 11 -8 28 27 31 64 1 17 6 31 10
31 4 0 4 10 -1 23 -15 38 -11 105 5 111 12 5 8 13 -19 38 -19 18 -39 43 -46
56 -7 13 -25 28 -41 34 -20 6 -30 17 -32 34 -2 16 -14 32 -33 42 -16 9 -33 21
-36 25 -3 5 -13 9 -22 11 -20 3 -57 35 -57 50 0 6 5 4 10 -4 5 -8 10 -10 10
-5 -1 24 -32 47 -66 48 -6 0 -21 15 -34 34 -18 27 -20 36 -10 48 10 13 9 15
-11 16 l-24 0 23 10 c13 5 27 7 31 4 4 -2 8 2 8 10 0 8 -4 12 -9 9 -4 -3 -5 1
-2 9 3 8 1 18 -5 22 -6 3 -11 -1 -11 -9 0 -12 -10 -16 -36 -16 -19 0 -33 -4
-30 -8 2 -4 -4 -13 -15 -20 -11 -7 -19 -8 -19 -2 0 5 -6 10 -13 10 -12 0 -44
51 -49 80 -2 8 -6 17 -10 21 -4 3 -9 19 -11 36 -2 16 -15 43 -30 59 -23 24
-26 34 -20 69 10 67 10 70 -14 67 -32 -4 -51 40 -43 98 4 24 3 60 -2 80 -20
75 -25 113 -21 131 3 10 -2 31 -12 45 -14 22 -15 28 -4 36 11 8 10 9 -3 4 -18
-5 -43 25 -31 38 3 3 1 6 -6 6 -7 0 -9 9 -6 23 3 12 7 35 10 51 2 16 9 34 15
40 5 5 10 27 10 48 0 39 19 88 47 120 13 14 13 19 -1 40 -9 14 -13 28 -9 32 4
3 8 16 10 28 2 12 1 19 -3 15 -7 -7 -34 17 -34 31 0 6 -7 12 -15 16 -8 3 -20
17 -25 31 -5 14 -14 25 -20 25 -6 0 -23 12 -37 26 -27 27 -30 47 -17 117 5 30
3 37 -10 37 -9 0 -16 8 -16 20 0 11 -4 20 -10 20 -7 0 -10 -233 -10 -679z
m393 -1470 c-4 -3 -11 -10 -15 -15 -5 -5 -8 0 -8 12 0 15 4 20 16 15 9 -3 12
-9 7 -12z"/>
<path d="M1293 2516 c-64 -21 -125 -60 -160 -104 -18 -23 -33 -46 -33 -51 0
-6 -9 -20 -20 -31 -11 -11 -17 -20 -12 -20 4 0 8 -43 8 -94 1 -89 0 -94 -17
-83 -24 15 -28 9 -22 -30 5 -32 54 -90 131 -155 57 -47 222 -73 362 -56 39 5
150 61 150 76 0 7 4 11 9 8 5 -3 11 1 15 9 3 8 12 15 19 15 18 0 18 16 6 120
-14 111 -36 216 -54 249 -14 28 -89 111 -100 111 -3 0 -18 9 -34 21 -36 26
-183 35 -248 15z"/>
<path d="M215 2490 c3 -5 8 -10 11 -10 2 0 4 5 4 10 0 6 -5 10 -11 10 -5 0 -7
-4 -4 -10z"/>
<path d="M326 2484 c-8 -22 -8 -24 8 -24 21 0 26 13 11 27 -10 10 -14 9 -19
-3z"/>
<path d="M1895 2180 c3 -5 8 -10 11 -10 2 0 4 5 4 10 0 6 -5 10 -11 10 -5 0
-7 -4 -4 -10z"/>
<path d="M1880 2146 c0 -7 8 -20 17 -27 15 -12 16 -12 10 4 -4 10 -7 23 -7 28
0 5 -4 9 -10 9 -5 0 -10 -6 -10 -14z"/>
<path d="M4430 2079 c0 -5 5 -7 10 -4 6 3 10 8 10 11 0 2 -4 4 -10 4 -5 0 -10
-5 -10 -11z"/>
<path d="M4605 2030 c3 -5 8 -10 11 -10 2 0 4 5 4 10 0 6 -5 10 -11 10 -5 0
-7 -4 -4 -10z"/>
<path d="M4630 2031 c0 -15 16 -22 35 -15 13 5 14 8 3 15 -18 12 -38 11 -38 0z"/>
<path d="M1734 1939 c-10 -17 13 -36 27 -22 12 12 4 33 -11 33 -5 0 -12 -5
-16 -11z"/>
<path d="M1735 1820 c-4 -6 -23 -21 -44 -34 -29 -19 -37 -30 -39 -57 -1 -24
-11 -42 -34 -61 l-32 -27 35 -15 c19 -8 37 -18 42 -22 4 -4 17 -9 28 -11 39
-6 68 -34 74 -71 4 -21 10 -56 14 -79 9 -45 2 -58 -62 -125 -21 -23 -25 -33
-17 -47 15 -30 46 -32 71 -5 31 33 68 30 115 -7 l39 -30 16 20 c22 27 14 60
-23 91 -40 35 -45 82 -12 115 14 14 29 25 34 25 5 0 7 7 4 15 -4 8 -9 13 -13
11 -4 -3 -13 -1 -19 3 -10 6 -4 17 19 42 18 19 36 33 41 32 4 -2 8 2 8 8 0 5
4 8 9 4 6 -3 13 1 18 8 4 7 23 24 40 37 25 18 30 26 21 37 -6 7 -13 11 -16 8
-3 -3 -12 1 -20 7 -7 7 -22 13 -31 15 -33 5 -92 34 -86 42 3 5 14 7 25 4 28
-7 25 15 -6 43 -29 28 -46 31 -42 8 2 -10 -3 -19 -11 -22 -8 -3 -11 0 -7 6 7
12 -21 23 -64 24 -16 1 -30 5 -30 10 0 12 -38 10 -45 -2z m103 -485 c-3 -3 -9
2 -12 12 -6 14 -5 15 5 6 7 -7 10 -15 7 -18z m-81 -52 c-8 -8 -21 -13 -28 -11
-9 3 -6 11 11 28 17 17 25 20 28 11 2 -7 -3 -20 -11 -28z"/>
<path d="M301 1671 c-10 -6 -10 -10 -1 -16 13 -8 24 -1 19 14 -3 6 -10 7 -18
2z"/>
<path d="M320 1560 c0 -6 -4 -9 -9 -6 -10 7 -23 -19 -14 -28 4 -3 16 -6 27 -5
12 0 15 3 8 6 -9 4 -10 8 -2 18 8 9 8 15 0 20 -5 3 -10 1 -10 -5z"/>
<path d="M250 1525 c0 -8 2 -15 4 -15 2 0 6 7 10 15 3 8 1 15 -4 15 -6 0 -10
-7 -10 -15z"/>
<path d="M312 1379 c3 -8 -1 -20 -8 -27 -14 -13 -8 -42 8 -42 5 0 6 9 3 20 -4
11 -2 20 4 20 15 0 14 27 0 36 -7 4 -10 1 -7 -7z"/>
<path d="M536 1164 c-11 -8 -18 -14 -15 -15 2 0 12 -2 21 -4 21 -4 30 6 20 22
-5 8 -13 7 -26 -3z"/>
<path d="M390 1160 c0 -5 5 -10 11 -10 5 0 7 5 4 10 -3 6 -8 10 -11 10 -2 0
-4 -4 -4 -10z"/>
<path d="M3597 993 c-4 -3 -7 -11 -7 -17 0 -6 5 -5 12 2 6 6 9 14 7 17 -3 3
-9 2 -12 -2z"/>
<path d="M4750 988 c0 -6 3 -8 7 -5 3 4 12 2 20 -4 10 -9 13 -8 13 5 0 9 -8
16 -20 16 -11 0 -20 -5 -20 -12z"/>
<path d="M3880 710 c0 -5 5 -10 10 -10 6 0 10 5 10 10 0 6 -4 10 -10 10 -5 0
-10 -4 -10 -10z"/>
<path d="M4770 210 c6 -11 13 -20 16 -20 2 0 0 9 -6 20 -6 11 -13 20 -16 20
-2 0 0 -9 6 -20z"/>
<path d="M4770 26 c0 -8 4 -17 9 -20 5 -4 7 3 4 14 -6 23 -13 26 -13 6z"/>
</g>
</svg>
